<svg xmlns="http://www.w3.org/2000/svg" viewBox="0 0 140.43 176.82"><defs><style>.cls-1,.cls-2{fill:#fbdca9;}.cls-1,.cls-10,.cls-12,.cls-13,.cls-14,.cls-4,.cls-5,.cls-6{stroke:#161616;}.cls-1,.cls-13,.cls-4{stroke-miterlimit:10;}.cls-1,.cls-14{stroke-width:4.56px;}.cls-3,.cls-5{fill:#f7c781;}.cls-10,.cls-11,.cls-12,.cls-13,.cls-14,.cls-4,.cls-9{fill:none;}.cls-4{stroke-width:4.56px;}.cls-10,.cls-11,.cls-12,.cls-14,.cls-5,.cls-6,.cls-9{stroke-linecap:round;stroke-linejoin:round;}.cls-5,.cls-6{stroke-width:3.99px;}.cls-6{fill:#fff;}.cls-7{fill:#fd9644;}.cls-8{fill:#fa8231;}.cls-9{stroke:#fbdca9;}.cls-11,.cls-12,.cls-9{stroke-width:4.55px;}.cls-10{stroke-width:4.55px;}.cls-11{stroke:#ffdcbd;}.cls-13{stroke-width:4.56px;}</style></defs><title>big_face_for_question</title><g id="Layer_2" data-name="Layer 2"><g id="Layer_1-2" data-name="Layer 1"><ellipse class="cls-1" cx="125.38" cy="112.52" rx="15.1" ry="7.69" transform="translate(-7.69 215.82) rotate(-79.72)"/><ellipse class="cls-1" cx="14.86" cy="112.52" rx="7.69" ry="15.1" transform="translate(-19.83 4.46) rotate(-10.28)"/><path class="cls-2" d="M122.25,40.49c-1.25-4.17-4-6-8.18-5.72-5.65.35-11.38.43-16.92,1.47a145,145,0,0,1-27,2.58,145,145,0,0,1-27-2.58c-5.54-1-11.27-1.12-16.92-1.47C22,34.52,19.25,36.33,18,40.49c-4.9,16.29-7.3,32.75-4.29,49.74,2,11.16,3.85,22.35,5.49,33.57,3.57,24.45,20.43,38,40.49,48.27a22.41,22.41,0,0,0,10.25,2.48h.38a22.41,22.41,0,0,0,10.25-2.48c20.06-10.28,36.91-23.82,40.49-48.27,1.64-11.22,3.51-22.41,5.49-33.57C129.55,73.24,127.14,56.78,122.25,40.49Z"/><path class="cls-3" d="M22,106.83c0-.54,0-1.08,0-1.62,0,.47,0,.94,0,1.41Z"/><path class="cls-3" d="M26,120.76a18.08,18.08,0,0,1-7.24-5.58l2.78,19.6,9.79,17,12.36,9.44L64,172.64C44.51,160.95,32.91,139.39,26,120.76Z"/><path class="cls-4" d="M122.25,40.49c-1.25-4.17-4-6-8.18-5.72-5.65.35-11.38.43-16.92,1.47a145,145,0,0,1-27,2.58,145,145,0,0,1-27-2.58c-5.54-1-11.27-1.12-16.92-1.47C22,34.52,19.25,36.33,18,40.49c-4.9,16.29-7.3,32.75-4.29,49.74,2,11.16,3.85,22.35,5.49,33.57,3.57,24.45,20.43,38,40.49,48.27A23.42,23.42,0,0,0,70,174.54a22.52,22.52,0,0,0,10.41-2.37l.2-.1c20.06-10.28,36.91-23.82,40.49-48.27,1.64-11.22,3.51-22.41,5.49-33.57C129.55,73.24,127.14,56.78,122.25,40.49Z"/><path class="cls-5" d="M68.52,107.29a18.55,18.55,0,0,1-2,8.11A34.17,34.17,0,0,0,64,120.5c-.56,1.82-.42,4,1,5.32a7.22,7.22,0,0,0,3.9,1.44l3.68.58"/><path class="cls-6" d="M53.56,138.72s17.66,5.7,33.61,0c0,0-5.7,12-16.52,12S53.56,138.72,53.56,138.72Z"/><path class="cls-7" d="M5.93,19.46,16,23.4l1-21.12c1.77,2,2.82,3.16,3.92,4.32C26.9,12.9,33.39,18.36,42.55,20a24.85,24.85,0,0,0,18.89-3.85c14.31-9.95,30.2-6.4,42.53,2.77.69.51,1.41,1,3,2.08l-3-7.22c.75.5,1.07.6,1.19.81,3,5,6.08,7.8,13.64,7,12.38-1.34,18.64,8.62,19.31,20.91.48,8.82-1.92,17.15-4.84,25.39-2.62,7.4-5,14.19-7.63,21.59-.51,1.45-1.34,5.75-2.28,8C113,82.49,114.13,70.2,114.8,53.55,100.67,64.24,85,62.62,68.08,63.24s-32.89-2.74-48-12a25.21,25.21,0,0,0-5.27,15.89c0,8.75,0,17.5,0,26.48-.62-.23-1.12-.27-1.22-.47C8.59,82.52,3.67,71.83,2.41,60a20.92,20.92,0,0,1,6-17.62c1.51-1.55,1.79-2.7.85-4.66C6.49,32,5.75,25.85,5.93,19.46Z"/><path class="cls-8" d="M7.86,19.7,5,23.4l4.26,8L11,37.43l-1.8,7L3.6,47.84l.12,2.36-.23-.08A21.84,21.84,0,0,0,2.31,60.29a61.51,61.51,0,0,0,1.46,8.18c.35,1.41.74,2.81,1.17,4.19a12.59,12.59,0,0,0,1.29-.4L7,77.41l8.53,11.37L17,82.52,16.1,58.08l5.69-8,6,2.84,20.75,8.53,30.13.28C46.8,58.08,7.86,19.7,7.86,19.7Z"/><path class="cls-9" d="M116.33,32.1s11.65.71,12,12"/><path class="cls-10" d="M108.39,102.2a10.78,10.78,0,0,0-18.17,0"/><line class="cls-11" x1="49.13" y1="111.29" x2="38.04" y2="122.38"/><line class="cls-11" x1="40.15" y1="108.45" x2="29.07" y2="119.54"/><line class="cls-11" x1="111.52" y1="111.29" x2="100.44" y2="122.38"/><line class="cls-11" x1="102.55" y1="108.45" x2="91.46" y2="119.54"/><path class="cls-12" d="M48.83,102.2a10.78,10.78,0,0,0-18.17,0"/><circle class="cls-13" cx="38.98" cy="101.41" r="22.22"/><circle class="cls-13" cx="98.8" cy="101.41" r="22.22"/><path class="cls-13" d="M59.49,95.71s8.55-8.55,17.09,0"/><path class="cls-14" d="M2.86,63.24C4.58,73.78,9,83.5,13.62,93.17c.1.21.6.25,1.22.47,0-9,0-17.72,0-26.48A25.21,25.21,0,0,1,20.1,51.28c15.1,9.21,31,12.57,48,12s32.58,1,46.72-9.68c-.67,16.65-1.81,28.94,8.55,43.87.94-2.23,1.76-6.52,2.28-8,2.62-7.4,5-14.19,7.63-21.59,2.92-8.24,5.33-16.57,4.84-25.39-.68-12.29-6.94-22.25-19.31-20.91-7.56.82-10.65-1.93-13.64-7-.12-.2-.44-.31-1.19-.81l3,7.22c-1.55-1.09-2.27-1.57-3-2.08C91.64,9.74,75.75,6.19,61.44,16.14A24.85,24.85,0,0,1,42.55,20C33.39,18.36,26.9,12.9,21,6.6c-1.09-1.17-2.15-2.37-3.92-4.32L16,23.4,5.93,19.46c-.18,6.39.56,12.53,3.32,18.3.94,2,.66,3.12-.85,4.66a22.3,22.3,0,0,0-3.74,5.06"/><line class="cls-14" x1="2.28" y1="55.3" x2="2.35" y2="54.94"/></g></g></svg>