<svg xmlns="http://www.w3.org/2000/svg" viewBox="0 0 218.17 132.49"><defs><style>.cls-1{font-size:61.31px;font-family:TwCenMT-CondensedExtraBold, Tw Cen MT Condensed Extra Bold;}.cls-2,.cls-9{fill:#fc5c65;}.cls-11,.cls-3{fill:#fed330;}.cls-4{fill:#fd9644;}.cls-10,.cls-5{fill:#26de81;}.cls-6,.cls-8{fill:#a55eea;}.cls-7{fill:#4b7bec;}.cls-10,.cls-11,.cls-8,.cls-9{stroke:#0a0a0a;stroke-miterlimit:10;stroke-width:6px;}</style></defs><title>Correct</title><g id="Layer_2" data-name="Layer 2"><g id="Layer_1-2" data-name="Layer 1"><text></text><text class="cls-1" transform="translate(27.9 62.23) rotate(-14.09)">C</text><text class="cls-1" transform="translate(53.01 55.88) rotate(-8.57)">o</text><text class="cls-1" transform="translate(79.57 51.98) rotate(-3.83)">r</text><text class="cls-1" transform="translate(99.88 50.59) rotate(0.28)">r</text><text class="cls-1" transform="translate(120.19 50.55) rotate(4.97)">e</text><text class="cls-1" transform="matrix(0.99, 0.17, -0.17, 0.99, 145.37, 52.83)">c</text><text class="cls-1" transform="matrix(0.97, 0.23, -0.23, 0.97, 164.46, 56.09)">t</text><text class="cls-1" transform="matrix(0.96, 0.3, -0.3, 0.96, 180.96, 60.01)">!</text><path class="cls-2" d="M109,58.14A281.28,281.28,0,0,0,32.38,68.71l1.44,5.91a274.56,274.56,0,0,1,156.77,1.94l1.53-5.91A280.86,280.86,0,0,0,109,58.14Z"/><path class="cls-3" d="M109,75.14a267.21,267.21,0,0,0-72.58,10L37.83,91a260.39,260.39,0,0,1,148.52,1.87l1.53-5.9A266.81,266.81,0,0,0,109,75.14Z"/><path class="cls-4" d="M109,67.14A274.25,274.25,0,0,0,34.5,77.39l1.44,5.91a267.46,267.46,0,0,1,152.41,1.9l1.53-5.9A273.84,273.84,0,0,0,109,67.14Z"/><path class="cls-5" d="M109,82.64a259.66,259.66,0,0,0-70.8,9.78l1.44,5.91a252.87,252.87,0,0,1,144.85,1.84l1.53-5.9A259.27,259.27,0,0,0,109,82.64Z"/><path class="cls-6" d="M109,99.55a246.7,246.7,0,0,0-66.82,9.17l1.44,5.91a239.79,239.79,0,0,1,136.66,1.76l1.53-5.9A246.32,246.32,0,0,0,109,99.55Z"/><path class="cls-7" d="M109,91.1a253.18,253.18,0,0,0-68.81,9.48l1.44,5.91a246.33,246.33,0,0,1,140.76,1.8l1.53-5.9A252.8,252.8,0,0,0,109,91.1Z"/><path d="M110,55.14a280.29,280.29,0,0,0-78.21,11l1,3.9a278.41,278.41,0,0,1,159.2,1.39l1-3.88A280,280,0,0,0,110,55.14Z"/><path d="M110,71.14A266.31,266.31,0,0,0,35.54,81.67l1,3.9a264.26,264.26,0,0,1,151.42,1.33l1-3.88A266.07,266.07,0,0,0,110,71.14Z"/><path d="M110,63.14A273.3,273.3,0,0,0,33.65,73.92l1,3.9a271.33,271.33,0,0,1,155.31,1.36l1-3.88A273,273,0,0,0,110,63.14Z"/><path d="M110,78.64A258.82,258.82,0,0,0,37.32,89l1,3.9A256.72,256.72,0,0,1,186,94.16l1-3.88A258.58,258.58,0,0,0,110,78.64Z"/><path d="M110,96.55a246,246,0,0,0-68.44,9.64l1,3.9a243.6,243.6,0,0,1,139.09,1.22l1-3.88A245.73,245.73,0,0,0,110,96.55Z"/><path d="M110,105.78a246.09,246.09,0,0,0-66.4,9.06l1,3.9a243.68,243.68,0,0,1,134.77,1.12l1-3.89A245.86,245.86,0,0,0,110,105.78Z"/><path d="M110,88.1A252.39,252.39,0,0,0,39.54,98l1,3.9a250.13,250.13,0,0,1,143.19,1.26l1-3.88A252.15,252.15,0,0,0,110,88.1Z"/><text></text><polygon class="cls-8" points="12.47 65.64 8.47 76.64 19.47 79.64 24.47 72.64 12.47 65.64"/><polygon class="cls-9" points="20.47 116.61 26.83 126.43 35.86 119.47 33.29 111.26 20.47 116.61"/><polygon class="cls-10" points="4.47 99.61 10.83 109.43 19.86 102.47 17.29 94.26 4.47 99.61"/><polygon class="cls-8" points="196.2 127.81 203.28 118.49 193.66 112.37 186.81 117.57 196.2 127.81"/><polygon class="cls-9" points="214.31 76.22 211.15 64.95 200.47 68.93 200.48 77.53 214.31 76.22"/><polygon class="cls-11" points="211.31 100.22 208.15 88.95 197.47 92.92 197.48 101.53 211.31 100.22"/></g></g></svg>