<svg xmlns="http://www.w3.org/2000/svg" viewBox="0 0 104.3 175.99"><defs><style>.cls-1{fill:#fff;}.cls-2{fill:#fed330;}.cls-3{fill:#fc5c65;}.cls-3,.cls-5,.cls-6{stroke:#0a0a0a;}.cls-3,.cls-5{stroke-miterlimit:10;stroke-width:6.99px;}.cls-4{fill:#0a0a0a;}.cls-5{fill:none;}.cls-6{fill:#ffc55f;stroke-linecap:round;stroke-linejoin:round;stroke-width:4.27px;}</style></defs><title>Hour_glass</title><g id="Layer_2" data-name="Layer 2"><g id="Layer_1-2" data-name="Layer 1"><path class="cls-1" d="M62.82,91.2c-1.28-.64-25.39.43-25.39.43L24,101.65s-5.55,3.84-5.33,4.91-2.35,11.31-2.35,11.31V129l.43,16s24.33,1.07,26,1.92,25.61.85,29,.85,15.36-.85,15.36-.85,0-3.41.85-3.41-.85-8.54,0-12.8a65.78,65.78,0,0,0,.43-15.79c-.43-3.84,1.28-5.55-3-10.67S81.17,94.82,76.9,94,62.82,91.2,62.82,91.2Z"/><path class="cls-1" d="M42.39,89.49c1.33.67,26.29-.45,26.29-.45L82.6,78.56s5.74-4,5.52-5.13,2.43-11.82,2.43-11.82V50l-.44-16.73s-25.19-1.12-27-2-26.51-.89-30-.89-15.91.89-15.91.89,0,3.57-.88,3.57.88,8.92,0,13.38a69.39,69.39,0,0,0-.44,16.5c.44,4-1.33,5.8,3.09,11.15s4.42,9.81,8.84,10.7S42.39,89.49,42.39,89.49Z"/><path class="cls-2" d="M59.85,132.73c-.26,0-2.71-.13-6,0a235.93,235.93,0,0,1,3.64-40.81h.61l4.69-.21,11.78-4.12,9-9.26L88,66.63,87,67c-37.75,15.1-68.42.17-68.73,0l-.88-.44,1.87,11.21.06.17a73,73,0,0,0,4.35,6.93c.87.87,12.54,6.28,14.87,7.36l.1,0,7.4-.16c1.48,4,3.74,14.41,4.32,40.68V133c-4.92.45-10.41,1.56-13,4.18-4.94,4.94-23.43,7.51-23.61,7.54l.13,1c.18,0,1.28-.18,2.92-.46l69,.81.5.4.31-.39h0l.32-.39C70,132,60.19,132.7,59.85,132.73Z"/><rect class="cls-3" x="3.5" y="3.5" width="97.3" height="26.46" rx="10.24" ry="10.24"/><path class="cls-4" d="M47,94.05C14.25,94.05,12,63.77,12,63.46V30h7V63.12c.15,1.83,2.5,23.95,28.08,23.95Z"/><path class="cls-5" d="M88.85,30V63.24S87.14,90.56,57.27,90.56"/><path class="cls-5" d="M88.85,151.16V117.87S87.14,90.56,57.27,90.56"/><path class="cls-5" d="M15.45,151.16V117.87S17.15,90.56,47,90.56"/><rect class="cls-3" x="3.5" y="146.04" width="97.3" height="26.46" rx="10.24" ry="10.24"/><line class="cls-6" x1="55.13" y1="162.68" x2="87.57" y2="162.68"/></g></g></svg>