<svg xmlns="http://www.w3.org/2000/svg" viewBox="0 0 230.45 149.37"><defs><style>.cls-1{fill:#262626;stroke-width:6.99px;}.cls-1,.cls-2,.cls-3,.cls-4{stroke:#0a0a0a;stroke-miterlimit:10;}.cls-2{fill:#353535;}.cls-2,.cls-3,.cls-4{stroke-width:5.12px;}.cls-3{fill:#fff;}.cls-4{fill:#fc5c65;}</style></defs><title>Movie</title><g id="Layer_2" data-name="Layer 2"><g id="Layer_1-2" data-name="Layer 1"><line class="cls-1" x1="122.06" y1="60.44" x2="81.09" y2="67.16"/><path class="cls-1" d="M45.24,44.38C45.75,45,147.95,5.69,147.95,5.69"/><circle class="cls-2" cx="45.24" cy="65.72" r="42.68"/><path class="cls-3" d="M39.26,32.21a39.47,39.47,0,0,1,11.08-.39,4.27,4.27,0,0,1,3.47,5.66l-5,14a4.26,4.26,0,0,1-4,2.83h0a4.26,4.26,0,0,1-4-2.83L35.95,37.85A4.25,4.25,0,0,1,39.26,32.21Z"/><path class="cls-3" d="M13.64,54.63a39.47,39.47,0,0,1,5.2-9.79,4.27,4.27,0,0,1,6.64-.17L35.07,56a4.26,4.26,0,0,1,.44,4.89h0a4.26,4.26,0,0,1-4.45,2.06L16.86,60.31A4.25,4.25,0,0,1,13.64,54.63Z"/><path class="cls-3" d="M19.19,88.14a39.47,39.47,0,0,1-5.88-9.4,4.27,4.27,0,0,1,3.17-5.83l14.58-2.66a4.26,4.26,0,0,1,4.45,2.06h0a4.26,4.26,0,0,1-.44,4.89l-9.34,11A4.25,4.25,0,0,1,19.19,88.14Z"/><path class="cls-3" d="M50.37,100.94a39.47,39.47,0,0,1-11.08.39,4.27,4.27,0,0,1-3.47-5.66l5-14a4.26,4.26,0,0,1,4-2.83h0a4.26,4.26,0,0,1,4,2.83L53.67,95.3A4.25,4.25,0,0,1,50.37,100.94Z"/><path class="cls-3" d="M76,78.52a39.47,39.47,0,0,1-5.2,9.79,4.27,4.27,0,0,1-6.64.17L54.55,77.19a4.26,4.26,0,0,1-.44-4.89h0a4.26,4.26,0,0,1,4.45-2.06l14.19,2.59A4.25,4.25,0,0,1,76,78.52Z"/><path class="cls-3" d="M70.43,45a39.47,39.47,0,0,1,5.88,9.4,4.27,4.27,0,0,1-3.17,5.83L58.57,62.9a4.26,4.26,0,0,1-4.45-2.06h0A4.26,4.26,0,0,1,54.55,56l9.34-11A4.25,4.25,0,0,1,70.43,45Z"/><circle class="cls-2" cx="154.49" cy="45.24" r="42.68"/><circle class="cls-3" cx="154.49" cy="22.19" r="10.24"/><circle class="cls-3" cx="129.74" cy="40.97" r="10.24"/><circle class="cls-3" cx="179.24" cy="41.82" r="10.24"/><circle class="cls-3" cx="169" cy="67.43" r="10.24" transform="translate(1.82 139.25) rotate(-45)"/><circle class="cls-3" cx="139.98" cy="67.43" r="10.24" transform="translate(-6.68 118.73) rotate(-45)"/><rect class="cls-2" x="180.95" y="94.6" width="15.36" height="30.73"/><rect class="cls-2" x="47.8" y="74.26" width="134.86" height="72.55" rx="10.24" ry="10.24"/><rect class="cls-2" x="194.61" y="86.49" width="17.92" height="46.94"/><rect class="cls-2" x="203.99" y="74.97" width="23.9" height="69.99"/><circle class="cls-4" cx="163.03" cy="92.18" r="8.54"/></g></g></svg>