<svg xmlns="http://www.w3.org/2000/svg" viewBox="0 0 218.45 299.1"><defs><style>.cls-1,.cls-2{fill:#d1d8e0;}.cls-11,.cls-12,.cls-15,.cls-2,.cls-3,.cls-36,.cls-4,.cls-45,.cls-46,.cls-7,.cls-8{stroke:#0a0a0a;}.cls-11,.cls-12,.cls-13,.cls-14,.cls-17,.cls-2,.cls-20,.cls-28,.cls-3,.cls-30,.cls-31,.cls-36,.cls-37,.cls-4,.cls-40,.cls-45,.cls-46,.cls-5,.cls-7,.cls-8,.cls-9{stroke-miterlimit:10;}.cls-11,.cls-13,.cls-2,.cls-3,.cls-7,.cls-9{stroke-width:6.99px;}.cls-12,.cls-13,.cls-14,.cls-20,.cls-24,.cls-25,.cls-26,.cls-27,.cls-28,.cls-29,.cls-3,.cls-31,.cls-34,.cls-35,.cls-4,.cls-40,.cls-43,.cls-44,.cls-5,.cls-8,.cls-9{fill:none;}.cls-4{stroke-width:6.93px;}.cls-5{stroke:#a5b1c2;}.cls-14,.cls-5{stroke-width:7.52px;}.cls-6,.cls-7{fill:#fd9644;}.cls-8{stroke-width:6.93px;}.cls-9{stroke:#fa8231;}.cls-10,.cls-11{fill:#f7b731;}.cls-12{stroke-width:6.99px;}.cls-13,.cls-14{stroke:#fed330;}.cls-15{fill:#45aaf2;stroke-width:6.93px;}.cls-15,.cls-21,.cls-22,.cls-24,.cls-25,.cls-26,.cls-27,.cls-29,.cls-32,.cls-33,.cls-34,.cls-35,.cls-41,.cls-42,.cls-43,.cls-44{stroke-linecap:round;stroke-linejoin:round;}.cls-16{font-size:33px;font-family:TwCenMT-CondensedExtraBold, Tw Cen MT Condensed Extra Bold;}.cls-17,.cls-18,.cls-30{fill:#fbdca9;}.cls-17,.cls-20,.cls-21,.cls-22,.cls-25,.cls-27,.cls-28,.cls-29,.cls-30,.cls-31,.cls-32,.cls-33,.cls-34,.cls-35,.cls-37,.cls-40,.cls-41,.cls-42,.cls-43,.cls-44{stroke:#161616;}.cls-17,.cls-29{stroke-width:2.93px;}.cls-19,.cls-21,.cls-32{fill:#f7c781;}.cls-20{stroke-width:2.93px;}.cls-21,.cls-22{stroke-width:2.57px;}.cls-22,.cls-33,.cls-42{fill:#fff;}.cls-23{fill:#fa8231;}.cls-24{stroke:#fbdca9;}.cls-24,.cls-26,.cls-27{stroke-width:2.93px;}.cls-25{stroke-width:2.93px;}.cls-26{stroke:#ffdcbd;}.cls-28{stroke-width:2.93px;}.cls-30{stroke-width:1.71px;}.cls-31{stroke-width:1.71px;}.cls-32,.cls-33{stroke-width:1.5px;}.cls-34{stroke-width:1.71px;}.cls-35{stroke-width:1.71px;}.cls-36,.cls-45,.cls-46{fill:#353535;}.cls-36{stroke-width:2.36px;}.cls-37,.cls-38{fill:#ce9a4e;}.cls-37{stroke-width:2.03px;}.cls-39,.cls-41{fill:#9e7743;}.cls-40{stroke-width:2.03px;}.cls-41,.cls-42{stroke-width:1.77px;}.cls-43{stroke-width:2.02px;}.cls-44{stroke-width:2.02px;}.cls-45{stroke-width:1.92px;}.cls-46{stroke-width:1.99px;}</style></defs><title>Podium</title><g id="Layer_2" data-name="Layer 2"><g id="Layer_1-2" data-name="Layer 1"><path class="cls-1" d="M42.82,168.72l0,3.09q4.73,0,9.46.05l1.4,0c2.81-.33,5.62-.65,8.41-.89,7.72-.68,15.46-1.19,23.2-1.17,0-1.4.05-2.36.05-2.36l6.5-.75,3.5-8.5s-3.5-3.75-4.75-4.75S78.32,151,73.32,151s-36.5,2-36.5,2l-5.75,8.5,4.5,5.75Z"/><path class="cls-1" d="M82.57,171.3c.07-.49.26-2.88.5-6.1-13.53-.06-27.06-.44-40.59-.5l-.41,41.59-10,5,.25,7.75,4.25,3.5,26.5,1.5,24,.5,5.5-3,3.75-9.75-10.75-5S82.32,173,82.57,171.3Z"/><path class="cls-2" d="M39.82,206.55s-8.5,0-8.5,8.5,8.5,8.5,8.5,8.5h47s8,0,8-8-8-8-8-8"/><path class="cls-3" d="M86.32,169.22s8.5,0,8.5-8.5-8.5-8.5-8.5-8.5h-47s-8,0-8,8,8,8,8,8"/><line class="cls-3" x1="42.82" y1="164.72" x2="42.82" y2="214.77"/><line class="cls-4" x1="83.82" y1="165.88" x2="83.82" y2="215.05"/><line class="cls-5" x1="55.99" y1="166.72" x2="55.99" y2="202.38"/><line class="cls-5" x1="69.66" y1="167.05" x2="69.66" y2="192.05"/><path class="cls-6" d="M139.7,193c8.56-2.26,17.23-1,25.86.35a106.48,106.48,0,0,0,17,1.08c0-1.52.06-2.59.06-2.59l6.5-.75,3.5-8.5s-3.5-3.75-4.75-4.75-12.25-2.5-17.25-2.5-36.5,2-36.5,2l-5.75,8.5,4.5,5.75Z"/><path class="cls-6" d="M181,185.19c-13.78-.1-27.58.77-41.36,1.42l-.19,19.19-10,5,.25,7.75,4.25,3.5,26.5,1.5,24,.5,5.5-3,3.75-9.75-10.75-5S181.82,195,181,185.19Z"/><path class="cls-7" d="M137.16,206s-8.5,0-8.5,8.5,8.5,8.5,8.5,8.5h47s8,0,8-8-8-8-8-8"/><path class="cls-3" d="M183.66,193.63s8.5,0,8.5-8.5-8.5-8.5-8.5-8.5h-47s-8,0-8,8,8,8,8,8"/><line class="cls-3" x1="140.16" y1="189.22" x2="140.16" y2="214.41"/><line class="cls-8" x1="181.16" y1="189.8" x2="181.16" y2="214.55"/><line class="cls-9" x1="152.32" y1="189.55" x2="152.32" y2="214.22"/><line class="cls-9" x1="165.66" y1="190.55" x2="165.66" y2="213.55"/><path class="cls-10" d="M87.66,123.3l-5.75,8.5,4.5,5.75,7.25,1.5-.75,75.75-10,5,.25,7.75,4.25,3.5,26.5,1.5,24,.5,5.5-3,3.75-9.75-10.75-5s-3.25-33.75-3-35.5,2-27.75,2.25-28.75.5-13.25.5-13.25l6.5-.75,3.5-8.5s-3.5-3.75-4.75-4.75-12.25-2.5-17.25-2.5S87.66,123.3,87.66,123.3Z"/><path class="cls-11" d="M90.66,215s-8.5,0-8.5,8.5,8.5,8.5,8.5,8.5h47s8,0,8-8-8-8-8-8"/><path class="cls-3" d="M137.16,139.55s8.5,0,8.5-8.5-8.5-8.5-8.5-8.5h-47s-8,0-8,8,8,8,8,8"/><line class="cls-3" x1="93.66" y1="135.05" x2="93.66" y2="223.05"/><line class="cls-12" x1="134.66" y1="135.72" x2="134.66" y2="223.55"/><line class="cls-13" x1="119.49" y1="136.55" x2="119.49" y2="208.22"/><line class="cls-14" x1="107.49" y1="136.55" x2="107.49" y2="219.55"/><path class="cls-15" d="M200.49,226.63c-88.5-29.5-175.5,0-175.5,0l10.5,41.5s85.5-26,147.5,0Z"/><polygon class="cls-15" points="193.99 243.13 214.99 256.63 198.49 273.63 200.99 292.13 164.49 284.13 170.99 264.63 182.99 268.13 193.99 243.13"/><polygon class="cls-15" points="55.49 264.13 59.49 285.13 10.49 295.63 18.99 267.63 3.49 258.13 27.99 245.13 35.49 268.13 55.49 264.13"/><text class="cls-16" transform="matrix(0.99, -0.1, 0.1, 0.99, 81.81, 248.1)">L</text><text class="cls-16" transform="translate(93.61 246.87) rotate(-3.75)">I</text><text class="cls-16" transform="matrix(1, -0.01, 0.01, 1, 103.11, 246.13)">A</text><text class="cls-16" transform="translate(120.12 245.7) rotate(5.11)">M</text><ellipse class="cls-17" cx="151.53" cy="72.4" rx="9.71" ry="4.95" transform="translate(53.26 208.58) rotate(-79.72)"/><ellipse class="cls-17" cx="80.42" cy="72.4" rx="4.95" ry="9.71" transform="translate(-11.62 15.51) rotate(-10.28)"/><path class="cls-18" d="M149.51,26.06a4.69,4.69,0,0,0-5.26-3.68,89.45,89.45,0,0,0-10.89.95A93.31,93.31,0,0,1,116,25a93.31,93.31,0,0,1-17.38-1.66,89.45,89.45,0,0,0-10.89-.95,4.69,4.69,0,0,0-5.26,3.68c-3.15,10.48-4.7,21.07-2.76,32,1.27,7.18,2.47,14.38,3.53,21.6,2.3,15.73,13.14,24.44,26.05,31.06a14.42,14.42,0,0,0,6.6,1.59h.24a14.42,14.42,0,0,0,6.6-1.59c12.91-6.62,23.75-15.32,26.05-31.06,1.05-7.22,2.26-14.42,3.53-21.6C154.21,47.13,152.66,36.54,149.51,26.06Z"/><path class="cls-19" d="M85,68.74c0-.35,0-.69,0-1,0,.3,0,.61,0,.91Z"/><path class="cls-19" d="M87.58,77.7a11.63,11.63,0,0,1-4.66-3.59l1.79,12.61L91,97.65l8,6.08,13,7.35C99.49,103.56,92,89.69,87.58,77.7Z"/><path class="cls-20" d="M149.51,26.06a4.69,4.69,0,0,0-5.26-3.68,89.45,89.45,0,0,0-10.89.95A93.31,93.31,0,0,1,116,25a93.31,93.31,0,0,1-17.38-1.66,89.45,89.45,0,0,0-10.89-.95,4.69,4.69,0,0,0-5.26,3.68c-3.15,10.48-4.7,21.07-2.76,32,1.27,7.18,2.47,14.38,3.53,21.6,2.3,15.73,13.14,24.44,26.05,31.06a15.07,15.07,0,0,0,6.61,1.59,14.49,14.49,0,0,0,6.7-1.52l.13-.07c12.91-6.62,23.75-15.32,26.05-31.06,1.05-7.22,2.26-14.42,3.53-21.6C154.21,47.13,152.66,36.54,149.51,26.06Z"/><path class="cls-21" d="M114.94,69a11.94,11.94,0,0,1-1.26,5.22,22,22,0,0,0-1.63,3.28,3.36,3.36,0,0,0,.63,3.42,4.64,4.64,0,0,0,2.51.93l2.37.38"/><path class="cls-22" d="M105.31,89.26s11.36,3.67,21.63,0c0,0-3.67,7.7-10.63,7.7S105.31,89.26,105.31,89.26Z"/><path class="cls-6" d="M74.67,12.52l6.51,2.54.66-13.59c1.14,1.26,1.82,2,2.52,2.78,3.8,4.05,8,7.56,13.87,8.62a16,16,0,0,0,12.16-2.48c9.21-6.4,19.43-4.12,27.37,1.78.44.33.91.64,1.91,1.34l-1.92-4.65c.48.32.69.39.76.52,1.93,3.25,3.91,5,8.78,4.49,8-.86,12,5.55,12.43,13.45.31,5.67-1.24,11-3.11,16.34l-4.91,13.89c-.33.93-.86,3.7-1.47,5.13-6.66-9.61-5.93-17.51-5.5-28.23-9.09,6.87-19.2,5.84-30.06,6.23S93.5,38.92,83.79,33A16.22,16.22,0,0,0,80.4,43.22c0,5.63,0,11.26,0,17-.4-.15-.72-.17-.79-.31-3.24-6.85-6.4-13.73-7.21-21.32a13.46,13.46,0,0,1,3.86-11.34,2.24,2.24,0,0,0,.55-3A25.07,25.07,0,0,1,74.67,12.52Z"/><path class="cls-23" d="M75.91,12.68l-1.83,2.38,2.74,5.12,1.1,3.91-1.16,4.49-3.6,2.21.08,1.52-.15-.05a14.05,14.05,0,0,0-.76,6.54,39.58,39.58,0,0,0,.94,5.26c.22.91.48,1.81.75,2.7a8.1,8.1,0,0,0,.83-.25l.5,3.31,5.49,7.32.91-4-.55-15.73,3.66-5.12,3.84,1.83,13.35,5.49,19.39.18C101,37.37,75.91,12.68,75.91,12.68Z"/><path class="cls-24" d="M145.71,20.65s7.5.46,7.73,7.73"/><path class="cls-25" d="M140.59,65.76a6.94,6.94,0,0,0-11.69,0"/><line class="cls-26" x1="102.47" y1="71.61" x2="95.33" y2="78.74"/><line class="cls-26" x1="96.69" y1="69.78" x2="89.56" y2="76.91"/><line class="cls-26" x1="142.61" y1="71.61" x2="135.48" y2="78.74"/><line class="cls-26" x1="136.83" y1="69.78" x2="129.7" y2="76.91"/><path class="cls-27" d="M102.28,65.76a6.94,6.94,0,0,0-11.69,0"/><circle class="cls-28" cx="95.94" cy="65.25" r="14.3"/><circle class="cls-28" cx="134.43" cy="65.25" r="14.3"/><path class="cls-28" d="M109.13,61.58s5.5-5.5,11,0"/><path class="cls-29" d="M72.69,40.69c1.11,6.78,4,13,6.92,19.26.06.13.39.16.79.31,0-5.77,0-11.4,0-17A16.22,16.22,0,0,1,83.79,33c9.71,5.93,20,8.09,30.87,7.69s21,.64,30.06-6.23c-.43,10.71-1.16,18.62,5.5,28.23.6-1.43,1.14-4.2,1.47-5.13l4.91-13.89c1.88-5.3,3.43-10.66,3.11-16.34-.43-7.91-4.46-14.32-12.43-13.45-4.87.53-6.85-1.24-8.78-4.49-.08-.13-.28-.2-.76-.52l1.92,4.65c-1-.7-1.46-1-1.91-1.34-7.94-5.9-18.16-8.18-27.37-1.78a16,16,0,0,1-12.16,2.48C92.34,11.81,88.16,8.3,84.36,4.25c-.7-.75-1.38-1.52-2.52-2.78l-.66,13.59-6.51-2.54a25.07,25.07,0,0,0,2.14,11.77,2.24,2.24,0,0,1-.55,3,14.35,14.35,0,0,0-2.41,3.25"/><line class="cls-29" x1="72.32" y1="35.58" x2="72.37" y2="35.35"/><ellipse class="cls-30" cx="192.27" cy="150.8" rx="5.68" ry="2.89" transform="translate(-32.45 246.76) rotate(-61.23)"/><ellipse class="cls-30" cx="152.83" cy="137.61" rx="5.68" ry="2.89" transform="translate(-5.21 269.21) rotate(-81.78)"/><path class="cls-18" d="M199.74,124.73a2.74,2.74,0,0,0-2.24-3,52.3,52.3,0,0,0-6.21-1.49A53.79,53.79,0,0,1,172,113.77a52.3,52.3,0,0,0-5.86-2.54,2.74,2.74,0,0,0-3.6,1.06c-3.69,5.23-6.51,10.81-7.47,17.23-.63,4.22-1.29,8.43-2,12.63-1.64,9.15,2.76,16,8.69,22.05a8.43,8.43,0,0,0,3.36,2.11h0l.07,0,.07,0h0a8.43,8.43,0,0,0,4,.34c8.38-1.28,16-4.09,20.2-12.39,1.92-3.81,3.92-7.58,6-11.32C198.44,137.29,199.54,131.13,199.74,124.73Z"/><path class="cls-19" d="M156.07,136.44c.07-.19.14-.38.19-.58l-.18.5Z"/><path class="cls-19" d="M155.82,141.88a6.8,6.8,0,0,1-1.92-2.86l-1.35,7.32,1.46,7.23,3.28,4.84,5.86,6.5C157.63,158.43,156.07,149.36,155.82,141.88Z"/><path class="cls-31" d="M199.74,124.73a2.74,2.74,0,0,0-2.24-3,52.3,52.3,0,0,0-6.21-1.49A53.79,53.79,0,0,1,172,113.77a52.3,52.3,0,0,0-5.86-2.54,2.74,2.74,0,0,0-3.6,1.06c-3.69,5.23-6.51,10.81-7.47,17.23-.63,4.22-1.29,8.43-2,12.63-1.64,9.15,2.76,16,8.69,22.05a8.81,8.81,0,0,0,3.37,2.11,8.47,8.47,0,0,0,4,.4h.08c8.38-1.28,16-4.09,20.2-12.39,1.92-3.81,3.92-7.58,6-11.32C198.44,137.29,199.54,131.13,199.74,124.73Z"/><path class="cls-32" d="M172.6,142.15a7,7,0,0,1-1.67,2.66,12.86,12.86,0,0,0-1.51,1.52,2,2,0,0,0-.29,2,2.72,2.72,0,0,0,1.22,1l1.24.65"/><path class="cls-33" d="M163.51,151.58s5.62,4.14,12,4c0,0-3.46,3.59-7.32,2.3S163.51,151.58,163.51,151.58Z"/><path class="cls-34" d="M187.43,145.09a4.06,4.06,0,0,0-6.48-2.17"/><path class="cls-35" d="M166.19,138a4.06,4.06,0,0,0-6.48-2.17"/><path class="cls-34" d="M159.74,129.72s6.8-1.42,9,3"/><path class="cls-34" d="M180.61,136.7s6.8-1.42,9,3"/><path class="cls-36" d="M1.25,89.11s2.82,38.55,10.65,50.78S74,128.77,74,128.77s14.45-9.67-15.53-54l-32.13,1L7,84Z"/><ellipse class="cls-37" cx="60.13" cy="103.44" rx="3.42" ry="6.72" transform="translate(-7.39 4.66) rotate(-4.19)"/><ellipse class="cls-37" cx="12.53" cy="115.72" rx="3.42" ry="6.72" transform="translate(-47.27 15.86) rotate(-24.74)"/><path class="cls-38" d="M50.78,72.77a3.24,3.24,0,0,0-4.16-1.55,61.84,61.84,0,0,0-7.13,2.51,64.51,64.51,0,0,1-11.35,4.11,64.51,64.51,0,0,1-11.92,1.89A61.84,61.84,0,0,0,8.77,81a3.24,3.24,0,0,0-2.89,3.37c-.3,7.56.49,14.92,3.68,21.9,2.09,4.59,4.14,9.2,6.09,13.85,4.26,10.13,13,14.09,22.8,16.29a10,10,0,0,0,4.69-.07h0l.08,0,.08,0h0a10,10,0,0,0,4.14-2.21c7.5-6.66,13.25-14.36,12.08-25.29-.54-5-1-10-1.37-15.07C57.57,86.06,54.7,79.24,50.78,72.77Z"/><path class="cls-19" d="M15,112.47c-.05-.23-.11-.47-.18-.7l.14.61Z"/><path class="cls-39" d="M18.24,118a8,8,0,0,1-3.74-1.6l3.37,8.13,6.1,6.23,6.37,2.69,10,2.67C30.68,133.28,23.29,125.29,18.24,118Z"/><path class="cls-40" d="M50.78,72.77a3.24,3.24,0,0,0-4.16-1.55,61.84,61.84,0,0,0-7.13,2.51,64.51,64.51,0,0,1-11.35,4.11,64.51,64.51,0,0,1-11.92,1.89A61.84,61.84,0,0,0,8.77,81a3.24,3.24,0,0,0-2.89,3.37c-.3,7.56.49,14.92,3.68,21.9,2.09,4.59,4.14,9.2,6.09,13.85,4.26,10.13,13,14.09,22.8,16.29a10.42,10.42,0,0,0,4.7-.08,10,10,0,0,0,4.22-2.18l.08-.07c7.5-6.66,13.25-14.36,12.08-25.29-.54-5-1-10-1.37-15.07C57.57,86.06,54.7,79.24,50.78,72.77Z"/><path class="cls-41" d="M35.06,107.5a8.25,8.25,0,0,1,.06,3.71,15.2,15.2,0,0,0-.52,2.48,2.32,2.32,0,0,0,1,2.18,3.21,3.21,0,0,0,1.84.19l1.65-.16"/><path class="cls-42" d="M32.11,122.71s8.24.49,14.48-3.73c0,0-1.12,5.79-5.79,7S32.11,122.71,32.11,122.71Z"/><path class="cls-43" d="M51.67,100.88a4.8,4.8,0,0,0-7.83,2"/><path class="cls-44" d="M26,107.5a4.8,4.8,0,0,0-7.83,2"/><path class="cls-36" d="M29.41,83.88S26.47,93,5.56,97.15l-4.31-8c-.22-.41.15-1.29.25-1.72q.22-1,.49-1.9a28.41,28.41,0,0,1,1.34-3.68,18.89,18.89,0,0,1,4.48-6.38,31.11,31.11,0,0,1,7.58-4.57,21.81,21.81,0,0,1,3.83-1.54,30.3,30.3,0,0,1,4-.39Z"/><path class="cls-36" d="M23.29,68.93V69a4.87,4.87,0,0,0,.42,1L25.6,74.6l3.72,9.05.1.23s13.44,2.79,26.45-3.77c.22-.11.48-1,.59-1.21l.64-1.32.68-1.37c.18-.37.67-1,.65-1.45,0-.62-1-1.11-1.36-1.5L55.5,71.62Q54,70,52.53,68.38a18.3,18.3,0,0,0-5-4.22,14.88,14.88,0,0,0-7.15-1.28A27.06,27.06,0,0,0,31.49,64c-1.93.67-3.7,1.72-5.57,2.55C25,66.94,23.17,67.6,23.29,68.93Z"/><path class="cls-45" d="M158.65,110.09s7.08-10.19,18.95-6.22S207.33,112,205,125.08"/><path class="cls-46" d="M156.64,111.8s-4,7.25-3.06,11.85c0,0-.32,1,3,1.53s8.74-4.18,38.77,9.47l.12.06,3.87,2.09s1.5,1.3,3-1.4a56.33,56.33,0,0,0,3.26-8.79,1.77,1.77,0,0,0-1-2.14C196.79,121,159.3,104.89,156.64,111.8Z"/></g></g></svg>